<svg width="104" height="98" viewBox="0 0 104 98" fill="none" xmlns="http://www.w3.org/2000/svg">
<path d="M2.15368 97.0696C3.34312 97.0696 4.30735 96.1053 4.30735 94.9159C4.30735 93.7264 3.34312 92.7622 2.15368 92.7622C0.964233 92.7622 0 93.7264 0 94.9159C0 96.1053 0.964233 97.0696 2.15368 97.0696Z" fill="#DE6944"/>
<path d="M2.15368 78.4568C3.34312 78.4568 4.30735 77.4925 4.30735 76.3031C4.30735 75.1136 3.34312 74.1494 2.15368 74.1494C0.964233 74.1494 0 75.1136 0 76.3031C0 77.4925 0.964233 78.4568 2.15368 78.4568Z" fill="#DE6944"/>
<path d="M2.15368 59.8413C3.34312 59.8413 4.30735 58.8771 4.30735 57.6876C4.30735 56.4982 3.34312 55.5339 2.15368 55.5339C0.964233 55.5339 0 56.4982 0 57.6876C0 58.8771 0.964233 59.8413 2.15368 59.8413Z" fill="#DE6944"/>
<path d="M2.15368 41.3813C3.34312 41.3813 4.30735 40.4171 4.30735 39.2276C4.30735 38.0382 3.34312 37.074 2.15368 37.074C0.964233 37.074 0 38.0382 0 39.2276C0 40.4171 0.964233 41.3813 2.15368 41.3813Z" fill="#DE6944"/>
<path d="M2.15368 22.7683C3.34312 22.7683 4.30735 21.8041 4.30735 20.6146C4.30735 19.4252 3.34312 18.4609 2.15368 18.4609C0.964233 18.4609 0 19.4252 0 20.6146C0 21.8041 0.964233 22.7683 2.15368 22.7683Z" fill="#DE6944"/>
<path d="M2.15563 4.30857C3.34507 4.30857 4.3093 3.34434 4.3093 2.1549C4.3093 0.965454 3.34507 0.0012207 2.15563 0.0012207C0.966186 0.0012207 0.00195312 0.965454 0.00195312 2.1549C0.00195312 3.34434 0.966186 4.30857 2.15563 4.30857Z" fill="#DE6944"/>
<path d="M101.841 97.0681C103.031 97.0681 103.995 96.1039 103.995 94.9144C103.995 93.725 103.031 92.7607 101.841 92.7607C100.652 92.7607 99.6875 93.725 99.6875 94.9144C99.6875 96.1039 100.652 97.0681 101.841 97.0681Z" fill="#DE6944"/>
<path d="M101.841 78.4555C103.031 78.4555 103.995 77.4913 103.995 76.3019C103.995 75.1124 103.031 74.1482 101.841 74.1482C100.652 74.1482 99.6875 75.1124 99.6875 76.3019C99.6875 77.4913 100.652 78.4555 101.841 78.4555Z" fill="#DE6944"/>
<path d="M101.841 59.8401C103.031 59.8401 103.995 58.8758 103.995 57.6864C103.995 56.497 103.031 55.5327 101.841 55.5327C100.652 55.5327 99.6875 56.497 99.6875 57.6864C99.6875 58.8758 100.652 59.8401 101.841 59.8401Z" fill="#DE6944"/>
<path d="M101.841 41.3801C103.031 41.3801 103.995 40.4159 103.995 39.2264C103.995 38.037 103.031 37.0728 101.841 37.0728C100.652 37.0728 99.6875 38.037 99.6875 39.2264C99.6875 40.4159 100.652 41.3801 101.841 41.3801Z" fill="#DE6944"/>
<path d="M101.841 22.7668C103.031 22.7668 103.995 21.8026 103.995 20.6131C103.995 19.4237 103.031 18.4595 101.841 18.4595C100.652 18.4595 99.6875 19.4237 99.6875 20.6131C99.6875 21.8026 100.652 22.7668 101.841 22.7668Z" fill="#DE6944"/>
<path d="M101.842 4.30735C103.031 4.30735 103.995 3.34312 103.995 2.15368C103.995 0.964233 103.031 0 101.842 0C100.652 0 99.688 0.964233 99.688 2.15368C99.688 3.34312 100.652 4.30735 101.842 4.30735Z" fill="#DE6944"/>
<path d="M81.9969 97.0681C83.1864 97.0681 84.1506 96.1039 84.1506 94.9144C84.1506 93.725 83.1864 92.7607 81.9969 92.7607C80.8075 92.7607 79.8433 93.725 79.8433 94.9144C79.8433 96.1039 80.8075 97.0681 81.9969 97.0681Z" fill="#DE6944"/>
<path d="M81.9969 78.4555C83.1864 78.4555 84.1506 77.4913 84.1506 76.3019C84.1506 75.1124 83.1864 74.1482 81.9969 74.1482C80.8075 74.1482 79.8433 75.1124 79.8433 76.3019C79.8433 77.4913 80.8075 78.4555 81.9969 78.4555Z" fill="#DE6944"/>
<path d="M81.9969 59.8401C83.1864 59.8401 84.1506 58.8758 84.1506 57.6864C84.1506 56.497 83.1864 55.5327 81.9969 55.5327C80.8075 55.5327 79.8433 56.497 79.8433 57.6864C79.8433 58.8758 80.8075 59.8401 81.9969 59.8401Z" fill="#DE6944"/>
<path d="M81.9969 41.3801C83.1864 41.3801 84.1506 40.4159 84.1506 39.2264C84.1506 38.037 83.1864 37.0728 81.9969 37.0728C80.8075 37.0728 79.8433 38.037 79.8433 39.2264C79.8433 40.4159 80.8075 41.3801 81.9969 41.3801Z" fill="#DE6944"/>
<path d="M81.9969 22.7668C83.1864 22.7668 84.1506 21.8026 84.1506 20.6131C84.1506 19.4237 83.1864 18.4595 81.9969 18.4595C80.8075 18.4595 79.8433 19.4237 79.8433 20.6131C79.8433 21.8026 80.8075 22.7668 81.9969 22.7668Z" fill="#DE6944"/>
<path d="M81.9964 4.30735C83.1859 4.30735 84.1501 3.34312 84.1501 2.15368C84.1501 0.964233 83.1859 0 81.9964 0C80.807 0 79.8428 0.964233 79.8428 2.15368C79.8428 3.34312 80.807 4.30735 81.9964 4.30735Z" fill="#DE6944"/>
<path d="M61.9979 97.0681C63.1874 97.0681 64.1516 96.1039 64.1516 94.9144C64.1516 93.725 63.1874 92.7607 61.9979 92.7607C60.8085 92.7607 59.8442 93.725 59.8442 94.9144C59.8442 96.1039 60.8085 97.0681 61.9979 97.0681Z" fill="#DE6944"/>
<path d="M61.9979 78.4555C63.1874 78.4555 64.1516 77.4913 64.1516 76.3019C64.1516 75.1124 63.1874 74.1482 61.9979 74.1482C60.8085 74.1482 59.8442 75.1124 59.8442 76.3019C59.8442 77.4913 60.8085 78.4555 61.9979 78.4555Z" fill="#DE6944"/>
<path d="M61.9979 59.8401C63.1874 59.8401 64.1516 58.8758 64.1516 57.6864C64.1516 56.497 63.1874 55.5327 61.9979 55.5327C60.8085 55.5327 59.8442 56.497 59.8442 57.6864C59.8442 58.8758 60.8085 59.8401 61.9979 59.8401Z" fill="#DE6944"/>
<path d="M61.9979 41.3801C63.1874 41.3801 64.1516 40.4159 64.1516 39.2264C64.1516 38.037 63.1874 37.0728 61.9979 37.0728C60.8085 37.0728 59.8442 38.037 59.8442 39.2264C59.8442 40.4159 60.8085 41.3801 61.9979 41.3801Z" fill="#DE6944"/>
<path d="M61.9979 22.7668C63.1874 22.7668 64.1516 21.8026 64.1516 20.6131C64.1516 19.4237 63.1874 18.4595 61.9979 18.4595C60.8085 18.4595 59.8442 19.4237 59.8442 20.6131C59.8442 21.8026 60.8085 22.7668 61.9979 22.7668Z" fill="#DE6944"/>
<path d="M61.9969 4.30735C63.1864 4.30735 64.1506 3.34312 64.1506 2.15368C64.1506 0.964233 63.1864 0 61.9969 0C60.8075 0 59.8433 0.964233 59.8433 2.15368C59.8433 3.34312 60.8075 4.30735 61.9969 4.30735Z" fill="#DE6944"/>
<path d="M41.9994 97.0681C43.1888 97.0681 44.1531 96.1039 44.1531 94.9144C44.1531 93.725 43.1888 92.7607 41.9994 92.7607C40.8099 92.7607 39.8457 93.725 39.8457 94.9144C39.8457 96.1039 40.8099 97.0681 41.9994 97.0681Z" fill="#DE6944"/>
<path d="M41.9994 78.4555C43.1888 78.4555 44.1531 77.4913 44.1531 76.3019C44.1531 75.1124 43.1888 74.1482 41.9994 74.1482C40.8099 74.1482 39.8457 75.1124 39.8457 76.3019C39.8457 77.4913 40.8099 78.4555 41.9994 78.4555Z" fill="#DE6944"/>
<path d="M41.9994 59.8401C43.1888 59.8401 44.1531 58.8758 44.1531 57.6864C44.1531 56.497 43.1888 55.5327 41.9994 55.5327C40.8099 55.5327 39.8457 56.497 39.8457 57.6864C39.8457 58.8758 40.8099 59.8401 41.9994 59.8401Z" fill="#DE6944"/>
<path d="M41.9994 41.3801C43.1888 41.3801 44.1531 40.4159 44.1531 39.2264C44.1531 38.037 43.1888 37.0728 41.9994 37.0728C40.8099 37.0728 39.8457 38.037 39.8457 39.2264C39.8457 40.4159 40.8099 41.3801 41.9994 41.3801Z" fill="#DE6944"/>
<path d="M41.9994 22.7668C43.1888 22.7668 44.1531 21.8026 44.1531 20.6131C44.1531 19.4237 43.1888 18.4595 41.9994 18.4595C40.8099 18.4595 39.8457 19.4237 39.8457 20.6131C39.8457 21.8026 40.8099 22.7668 41.9994 22.7668Z" fill="#DE6944"/>
<path d="M41.9989 4.30735C43.1883 4.30735 44.1526 3.34312 44.1526 2.15368C44.1526 0.964233 43.1883 0 41.9989 0C40.8094 0 39.8452 0.964233 39.8452 2.15368C39.8452 3.34312 40.8094 4.30735 41.9989 4.30735Z" fill="#DE6944"/>
<path d="M22.0013 97.0681C23.1908 97.0681 24.155 96.1039 24.155 94.9144C24.155 93.725 23.1908 92.7607 22.0013 92.7607C20.8119 92.7607 19.8477 93.725 19.8477 94.9144C19.8477 96.1039 20.8119 97.0681 22.0013 97.0681Z" fill="#DE6944"/>
<path d="M22.0013 78.4555C23.1908 78.4555 24.155 77.4913 24.155 76.3019C24.155 75.1124 23.1908 74.1482 22.0013 74.1482C20.8119 74.1482 19.8477 75.1124 19.8477 76.3019C19.8477 77.4913 20.8119 78.4555 22.0013 78.4555Z" fill="#DE6944"/>
<path d="M22.0013 59.8401C23.1908 59.8401 24.155 58.8758 24.155 57.6864C24.155 56.497 23.1908 55.5327 22.0013 55.5327C20.8119 55.5327 19.8477 56.497 19.8477 57.6864C19.8477 58.8758 20.8119 59.8401 22.0013 59.8401Z" fill="#DE6944"/>
<path d="M22.0013 41.3801C23.1908 41.3801 24.155 40.4159 24.155 39.2264C24.155 38.037 23.1908 37.0728 22.0013 37.0728C20.8119 37.0728 19.8477 38.037 19.8477 39.2264C19.8477 40.4159 20.8119 41.3801 22.0013 41.3801Z" fill="#DE6944"/>
<path d="M22.0013 22.7668C23.1908 22.7668 24.155 21.8026 24.155 20.6131C24.155 19.4237 23.1908 18.4595 22.0013 18.4595C20.8119 18.4595 19.8477 19.4237 19.8477 20.6131C19.8477 21.8026 20.8119 22.7668 22.0013 22.7668Z" fill="#DE6944"/>
<path d="M22.0004 4.30735C23.1898 4.30735 24.154 3.34312 24.154 2.15368C24.154 0.964233 23.1898 0 22.0004 0C20.8109 0 19.8467 0.964233 19.8467 2.15368C19.8467 3.34312 20.8109 4.30735 22.0004 4.30735Z" fill="#DE6944"/>
</svg>
